#!OML:ASF I:\Actors\actors\Patient Classification 2\Patient 1\Session 1\actor1.ASF
:FULLY-SPECIFIED
:DEGREES
540
root -0.864871 18.756 5.27681 3.38497 0.770477 -3.76047
lowerback 7.6673 2.05575 -4.87886
upperback 1.48414 2.25448 -2.58875
thorax -2.84357 1.15168 -0.167944
lowerneck -12.7246 1.18577 -1.60827
upperneck 34.4558 2.45868 -0.314948
head 13.7941 0.824595 0.53421
rclavicle -3.57812e-014 4.13472e-014
rhumerus -34.3114 43.0172 -83.256
rradius 110.836
rwrist 15.9255
rhand -33.5259 -35.484
rfingers 7.12502
rthumb -6.72186 -65.3574
lclavicle -3.57812e-014 4.13472e-014
lhumerus 4.33215 -34.6683 62.875
lradius 80.8421
lwrist 39.8819
lhand -1.1905 -26.1463
lfingers 7.12502
lthumb 24.4496 2.31339
rfemur 0 0 0
rtibia 0
rfoot 0 0
rtoes 0
lfemur -8.26961 -9.91642 -9.2654
ltibia 22.2613
lfoot -23.7696 16.6983
ltoes -54.3319
541
root -0.864362 18.7545 5.27688 3.35755 0.671801 -3.71044
lowerback 7.55795 2.05784 -5.09805
upperback 1.51134 2.24978 -2.55854
thorax -2.76371 1.14951 -0.009583
lowerneck -12.8261 1.21898 -1.3134
upperneck 34.3507 2.5059 -0.556334
head 13.7783 0.85126 0.39343
rclavicle 1.27222e-014 -2.70347e-014
rhumerus -34.4311 44.6354 -82.9993
rradius 108.827
rwrist 15.031
rhand -33.9142 -35.8616
rfingers 7.12502
rthumb -7.09671 -65.7227
lclavicle 1.27222e-014 -2.70347e-014
lhumerus 4.45194 -34.7335 62.722
lradius 80.8201
lwrist 39.8338
lhand -1.20674 -26.1034
lfingers 7.12502
lthumb 24.434 2.35838
rfemur 0 0 0
rtibia 0
rfoot 0 0
rtoes 0
lfemur -8.19273 -9.91467 -9.33841
ltibia 22.2465
lfoot -23.8046 16.7433
ltoes -54.232
542
root -0.863974 18.7529 5.27354 3.32987 0.558363 -3.68997
lowerback 7.54238 2.10402 -5.29716
upperback 1.55353 2.30008 -2.49764
thorax -2.72329 1.17476 0.16044
lowerneck -12.9287 1.21544 -1.11622
upperneck 34.1898 2.51538 -0.770842
head 13.7366 0.85361 0.274906
rclavicle -1.19271e-015 -5.24792e-014
rhumerus -34.6879 45.8716 -82.7677
rradius 108.012
rwrist 14.1536
rhand -31.4747 -36.88
rfingers 7.12502
rthumb -4.74154 -66.807
lclavicle -1.19271e-015 -5.24792e-014
lhumerus 4.62593 -34.7168 62.7423
lradius 80.8098
lwrist 39.683
lhand -1.14822 -26.1417
lfingers 7.12502
lthumb 24.4901 2.31246
rfemur 0 0 0
rtibia 0
rfoot 0 0
rtoes 0
lfemur -8.13233 -9.85137 -9.3714
ltibia 22.2366
lfoot -23.8582 16.7341
ltoes -54.0901
543
root -0.862853 18.753 5.26685 3.31773 0.494874 -3.68087
lowerback 7.63863 2.19876 -5.41522
upperback 1.60981 2.4133 -2.43717
thorax -2.73061 1.23113 0.27445
lowerneck -13.008 1.17553 -1.05258
upperneck 33.9359 2.4764 -0.898368
head 13.6453 0.831503 0.207071
rclavicle 3.97569e-015 3.18055e-015
rhumerus -35.0834 46.2084 -82.64
rradius 108.66
rwrist 13.9525
rhand -31.3525 -35.8264
rfingers 7.12502
rthumb -4.62357 -65.756
lclavicle 3.97569e-015 3.18055e-015
lhumerus 4.87166 -34.7277 62.8205
lradius 80.8862
lwrist 39.6068
lhand -1.09375 -26.2191
lfingers 7.12502
lthumb 24.5423 2.22807
rfemur 0 0 0
rtibia 0
rfoot 0 0
rtoes 0
lfemur -8.12752 -9.6881 -9.38281
ltibia 22.2382
lfoot -23.7657 16.6445
ltoes -54.0664
544
root -0.861428 18.7538 5.25823 3.29172 0.54605 -3.67744
lowerback 7.87242 2.27251 -5.4287
upperback 1.66716 2.49635 -2.3776
thorax -2.80814 1.27299 0.326856
lowerneck -13.0307 1.14109 -1.13693
upperneck 33.6224 2.44719 -0.917423
head 13.512 0.810689 0.209357
rclavicle 2.26615e-014 -1.43125e-014
rhumerus -35.3412 45.6087 -82.5376
rradius 110.497
rwrist 14.0083
rhand -31.6748 -35.3032
rfingers 7.12502
rthumb -4.93471 -65.2258
lclavicle 2.26615e-014 -1.43125e-014
lhumerus 5.02567 -34.7135 62.9322
lradius 81.0859
lwrist 39.6768
lhand -1.15989 -26.3215
lfingers 7.12502
lthumb 24.4789 2.13422
rfemur 0 0 0
rtibia 0
rfoot 0 0
rtoes 0
lfemur -8.1656 -9.52237 -9.38713
ltibia 22.2576
lfoot -23.5376 16.6055
ltoes -54.3455
545
root -0.860672 18.7551 5.25138 3.3049 0.665662 -3.6865
lowerback 8.06746 2.27455 -5.38427
upperback 1.69483 2.49114 -2.31167
thorax -2.88873 1.27123 0.363798
lowerneck -12.9876 1.15322 -1.33778
upperneck 33.4235 2.49465 -0.858761
head 13.4122 0.817584 0.273901
rclavicle 8.34896e-015 -2.22639e-014
rhumerus -35.2118 44.3827 -82.4637
rradius 112.548
rwrist 14.8617
rhand -33.2164 -34.7886
rfingers 7.12502
rthumb -6.42313 -64.6712
lclavicle 8.34896e-015 -2.22639e-014
lhumerus 4.95584 -34.5609 63.1298
lradius 81.2782
lwrist 39.7959
lhand -1.24295 -26.475
lfingers 7.12502
lthumb 24.3993 1.99142
rfemur 0 0 0
rtibia 0
rfoot 0 0
rtoes 0
lfemur -8.27687 -9.45805 -9.36568
ltibia 22.2902
lfoot -23.3629 16.6368
ltoes -54.6941
546
root -0.860543 18.7574 5.24816 3.34501 0.758595 -3.72121
lowerback 8.17479 2.23911 -5.26628
upperback 1.6675 2.44525 -2.29797
thorax -2.97049 1.24942 0.312501
lowerneck -12.9743 1.2064 -1.39636
upperneck 33.5471 2.61029 -0.903877
head 13.4633 0.853103 0.284152
rclavicle -8.74653e-015 2.06736e-014
rhumerus -34.7737 42.9084 -82.5281
rradius 114.232
rwrist 15.6877
rhand -33.5364 -33.9784
rfingers 7.12502
rthumb -6.73206 -63.8514
lclavicle -8.74653e-015 2.06736e-014
lhumerus 4.74611 -34.4129 63.2882
lradius 81.3811
lwrist 39.9279
lhand -1.24233 -26.5146
lfingers 7.12502
lthumb 24.3999 1.95181
rfemur 0 0 0
rtibia 0
rfoot 0 0
rtoes 0
lfemur -8.38595 -9.48049 -9.31083
ltibia 22.3188
lfoot -23.3299 16.6239
ltoes -54.6912
547
root -0.860072 18.7589 5.24684 3.35529 0.809942 -3.77516
lowerback 8.23144 2.18081 -5.06043
upperback 1.61268 2.3771 -2.35798
thorax -3.04523 1.21579 0.139968
lowerneck -13.0535 1.26225 -1.30792
upperneck 33.9614 2.71897 -0.999047
head 13.6659 0.89174 0.249719
rclavicle -9.93923e-015 -2.54444e-014
rhumerus -34.0516 41.6774 -82.5401
rradius 115.039
rwrist 16.5946
rhand -34.5464 -33.3143
rfingers 7.12502
rthumb -7.70696 -63.1538
lclavicle -9.93923e-015 -2.54444e-014
lhumerus 4.50071 -34.3823 63.3067
lradius 81.3908
lwrist 40.013
lhand -1.1659 -26.3153
lfingers 7.12502
lthumb 24.4732 2.14123
rfemur 0 0 0
rtibia 0
rfoot 0 0
rtoes 0
lfemur -8.41677 -9.64243 -9.24886
ltibia 22.3297
lfoot -23.4608 16.6015
ltoes -54.4414
548
root -0.859101 18.759 5.24727 3.35581 0.831885 -3.79013
lowerback 8.14104 2.10508 -4.88714
upperback 1.58267 2.29368 -2.45899
thorax -3.01194 1.17265 -0.0488465
lowerneck -13.1837 1.27827 -1.26262
upperneck 34.4438 2.74804 -0.990628
head 13.9102 0.902098 0.252504
rclavicle -1.19271e-015 2.70347e-014
rhumerus -33.1538 41.2762 -82.4291
rradius 114.592
rwrist 16.3581
rhand -34.7656 -33.8633
rfingers 7.12502
rthumb -7.91854 -63.695
lclavicle -1.19271e-015 2.70347e-014
lhumerus 4.34382 -34.4433 63.1877
lradius 81.2733
lwrist 39.9721
lhand -1.06796 -26.1547
lfingers 7.12502
lthumb 24.5671 2.28904
rfemur 0 0 0
rtibia 0
rfoot 0 0
rtoes 0
lfemur -8.40355 -9.83283 -9.23978
ltibia 22.3153
lfoot -23.5981 16.625
ltoes -54.2952
549
root -0.856907 18.7587 5.25037 3.37854 0.763683 -3.75763
lowerback 7.89951 2.05448 -4.84145
upperback 1.56095 2.24368 -2.55849
thorax -2.89257 1.14581 -0.163114
lowerneck -13.2616 1.2495 -1.17716
upperneck 34.7975 2.7067 -1.02432
head 14.0893 0.883832 0.219249
rclavicle 2.42517e-014 1.59028e-015
rhumerus -32.4254 41.8615 -82.2213
rradius 113.252
rwrist 14.9109
rhand -32.8952 -34.1976
rfingers 7.12502
rthumb -6.11303 -64.0894
lclavicle 2.42517e-014 1.59028e-015
lhumerus 4.31477 -34.5946 62.9641
lradius 81.0688
lwrist 39.8683
lhand -0.997347 -26.142
lfingers 7.12502
lthumb 24.6348 2.29254
rfemur 0 0 0
rtibia 0
rfoot 0 0
rtoes 0
lfemur -8.36421 -9.9268 -9.29337
ltibia 22.2763
lfoot -23.6732 16.7122
ltoes -54.2139
550
root -0.852764 18.7581 5.25392 3.40067 0.638326 -3.67438
lowerback 7.64352 2.02861 -4.95287
upperback 1.55001 2.21618 -2.62647
thorax -2.7619 1.13108 -0.159226
lowerneck -13.2754 1.22259 -0.956221
upperneck 34.8945 2.66428 -1.19306
head 14.1432 0.869164 0.105615
rclavicle -1.82882e-014 2.38542e-014
rhumerus -31.9352 42.9346 -81.7805
rradius 111.758
rwrist 13.6905
rhand -31.1525 -34.4355
rfingers 7.12502
rthumb -4.43041 -64.3691
lclavicle -1.82882e-014 2.38542e-014
lhumerus 4.38092 -34.7474 62.7223
lradius 80.8816
lwrist 39.7515
lhand -0.91973 -26.0825
lfingers 7.12502
lthumb 24.7091 2.34185
rfemur 0 0 0
rtibia 0
rfoot 0 0
rtoes 0
lfemur -8.30064 -10.0234 -9.41921
ltibia 22.2338
lfoot -23.8071 16.8466
ltoes -54.1025
551
root -0.848705 18.7571 5.25412 3.40363 0.551731 -3.60309
lowerback 7.51618 2.04151 -5.08849
upperback 1.57153 2.23156 -2.67275
thorax -2.67239 1.1379 -0.127991
lowerneck -13.3597 1.17494 -0.809885
upperneck 34.7864 2.55104 -1.20756
head 14.1147 0.838002 0.0567132
rclavicle -1.98785e-015 1.59028e-015
rhumerus -31.9273 44.0351 -81.4704
rradius 110.728
rwrist 12.1944
rhand -28.3736 -34.1855
rfingers 7.12502
rthumb -1.74679 -64.1581
lclavicle -1.98785e-015 1.59028e-015
lhumerus 4.59787 -34.8776 62.5274
lradius 80.7591
lwrist 39.5554
lhand -0.804119 -26.0267
lfingers 7.12502
lthumb 24.8199 2.38251
rfemur 0 0 0
rtibia 0
rfoot 0 0
rtoes 0
lfemur -8.253 -10.0807 -9.52479
ltibia 22.2044
lfoot -23.9282 16.9586
ltoes -54.0738
552
root -0.846372 18.7571 5.25062 3.41219 0.507424 -3.61636
lowerback 7.52967 2.11204 -5.13282
upperback 1.61055 2.32257 -2.66948
thorax -2.64455 1.18239 -0.108793
lowerneck -13.525 1.06199 -0.967292
upperneck 34.5533 2.32408 -0.929643
head 14.038 0.759469 0.162174
rclavicle -9.54166e-015 -2.06736e-014
rhumerus -32.4447 44.5866 -81.4075
rradius 110.675
rwrist 11.0248
rhand -26.9808 -33.9334
rfingers 7.12502
rthumb -0.401496 -63.9128
lclavicle -9.54166e-015 -2.06736e-014
lhumerus 4.86532 -34.9594 62.4822
lradius 80.7721
lwrist 39.321
lhand -0.696917 -26.097
lfingers 7.12502
lthumb 24.9227 2.29795
rfemur 0 0 0
rtibia 0
rfoot 0 0
rtoes 0
lfemur -8.25428 -10.0221 -9.51462
ltibia 22.1919
lfoot -23.9421 17.0211
ltoes -54.2001
